<mxfile host="app.diagrams.net" modified="2024-03-06T15:36:48.053Z" agent="Mozilla/5.0 (Macintosh; Intel Mac OS X 10_15_7) AppleWebKit/537.36 (KHTML, like Gecko) Chrome/122.0.0.0 Safari/537.36" version="23.1.5" etag="jjrLB1DTWxqEc3m6F46_" type="github">
  <diagram name="Page-1" id="Sf4YPPKeI3qOAcgD5NRj">
    <mxGraphModel>
      <root>
        <mxCell id="0" />
        <mxCell id="1" parent="0" />
      </root>
    </mxGraphModel>
  </diagram>
</mxfile>
